{"title":"The Crimson Field S01E04 Xvid RB58.avi","uid":10055236,"size":503311832,"categoryP":"video","categoryS":"tv_shows","magnet":"?xt=urn:btih:adaf455a7fd4e48049ea335c4c2965c18190f9ac&amp;dn=The+Crimson+Field+S01E04+Xvid+RB58.avi&amp;tr=udp%3A%2F%2Ftracker.openbittorrent.com%3A80&amp;tr=udp%3A%2F%2Fopen.demonii.com%3A1337&amp;tr=udp%3A%2F%2Ftracker.coppersurfer.tk%3A6969&amp;tr=udp%3A%2F%2Fexodus.desync.com%3A6969","seeders":1,"leechers":0,"uploader":"RedBaron58","files":1,"time":1398653193,"description":"The Crimson Field S01 E04 Xvid\n  &lt;a href=&quot;\nhttp://www.imdb.com/title/tt3494220/&quot; rel=&quot;nofollow&quot; target=&quot;_NEW&quot;&gt;\nhttp://www.imdb.com/title/tt3494220/&lt;/a&gt;\n\n\nThank you for your kind comments and thumbs ups on my other torrents, your feedback is welcome.\n\n\nAbout the Episode:\nJoan is in agony not knowing whether her fiance is alive or dead and to make matters worse, Rosalie has \nseen her ring, and could reveal her connection to the enemy. Her spirits are lifted by the arrival of 13 \nsoldiers from her home town of Liverpool, who are united in the belief that if they stick together\n\n\nI hope you enjoy.\n\n\nTechnical:\n\nGeneral\nComplete name                            : G:The Crimson Field S01E04 Xvid RB58.avi\nFormat                                   : AVI\nFormat/Info                              : Audio Video Interleave\nFile size                                : 480 MiB\nDuration                                 : 59mn 24s\nOverall bit rate                         : 1 129 Kbps\n\nVideo\nID                                       : 0\nFormat                                   : MPEG-4 Visual\nFormat profile                           : Advanced Simple@L4\nFormat settings, BVOP                    : 2\nFormat settings, QPel                    : No\nFormat settings, GMC                     : No warppoints\nFormat settings, Matrix                  : Default (H.263)\nCodec ID                                 : DIVX\nCodec ID/Info                            : Project Mayo\nCodec ID/Hint                            : DivX 4\nDuration                                 : 59mn 24s\nBit rate                                 : 988 Kbps\nWidth                                    : 704 pixels\nHeight                                   : 396 pixels\nDisplay aspect ratio                     : 16:9\nFrame rate                               : 25.000 fps\nColor space                              : YUV\nChroma subsampling                       : 4:2:0\nBit depth                                : 8 bits\nScan type                                : Progressive\nCompression mode                         : Lossy\nBits/(Pixel*Frame)                       : 0.142\nStream size                              : 420 MiB (87%)\nWriting library                          : XviD 64\n\nAudio\nID                                       : 1\nFormat                                   : MPEG Audio\nFormat version                           : Version 1\nFormat profile                           : Layer 3\nCodec ID                                 : 55\nCodec ID/Hint                            : MP3\nDuration                                 : 59mn 24s\nBit rate mode                            : Constant\nBit rate                                 : 128 Kbps\nChannel(s)                               : 2 channels\nSampling rate                            : 48.0 KHz\nCompression mode                         : Lossy\nStream size                              : 54.4 MiB (11%)\nAlignment                                : Aligned on interleaves\nInterleave, duration                     : 24 ms (0.60 video frame)","torrent":{"xt":"urn:btih:adaf455a7fd4e48049ea335c4c2965c18190f9ac","amp;dn":"The+Crimson+Field+S01E04+Xvid+RB58.avi","amp;tr":["udp%3A%2F%2Ftracker.openbittorrent.com%3A80","udp%3A%2F%2Fopen.demonii.com%3A1337","udp%3A%2F%2Ftracker.coppersurfer.tk%3A6969","udp%3A%2F%2Fexodus.desync.com%3A6969"],"infoHash":"adaf455a7fd4e48049ea335c4c2965c18190f9ac","infoHashBuffer":{"type":"Buffer","data":[173,175,69,90,127,212,228,128,73,234,51,92,76,41,101,193,129,144,249,172]},"announce":[],"urlList":[]}}